<svg width="80" height="80" viewBox="0 0 80 80" fill="none" xmlns="http://www.w3.org/2000/svg">
<path d="M36.7361 0.8125C38.8056 -0.265625 41.1944 -0.265625 43.2639 0.8125L73.625 16.5938C74.8055 17.2031 75.5555 18.5312 75.5555 20C75.5555 21.4688 74.8055 22.7969 73.625 23.4063L43.2639 39.1875C41.1944 40.2656 38.8056 40.2656 36.7361 39.1875L6.375 23.4063C5.19444 22.7813 4.44444 21.4531 4.44444 20C4.44444 18.5469 5.19444 17.2031 6.375 16.5938L36.7361 0.8125ZM66.2361 32.75L73.625 36.5938C74.8055 37.2031 75.5555 38.5312 75.5555 40C75.5555 41.4688 74.8055 42.7969 73.625 43.4062L43.2639 59.1875C41.1944 60.2656 38.8056 60.2656 36.7361 59.1875L6.375 43.4062C5.19444 42.7812 4.44444 41.4531 4.44444 40C4.44444 38.5469 5.19444 37.2031 6.375 36.5938L13.7639 32.75L34.875 43.7188C38.125 45.4062 41.875 45.4062 45.125 43.7188L66.2361 32.75ZM45.125 63.7188L66.2361 52.75L73.625 56.5938C74.8055 57.2031 75.5555 58.5312 75.5555 60C75.5555 61.4688 74.8055 62.7969 73.625 63.4062L43.2639 79.1875C41.1944 80.2656 38.8056 80.2656 36.7361 79.1875L6.375 63.4062C5.19444 62.7812 4.44444 61.4531 4.44444 60C4.44444 58.5469 5.19444 57.2031 6.375 56.5938L13.7639 52.75L34.875 63.7188C38.125 65.4062 41.875 65.4062 45.125 63.7188Z" fill="#998650"/>
</svg>
