<svg width="80" height="80" viewBox="0 0 80 80" fill="none" xmlns="http://www.w3.org/2000/svg">
<g clip-path="url(#clip0_13_418)">
<path d="M40 0C50.6087 0 60.7828 4.21427 68.2843 11.7157C75.7857 19.2172 80 29.3913 80 40C80 50.6087 75.7857 60.7828 68.2843 68.2843C60.7828 75.7857 50.6087 80 40 80C29.3913 80 19.2172 75.7857 11.7157 68.2843C4.21427 60.7828 0 50.6087 0 40C0 29.3913 4.21427 19.2172 11.7157 11.7157C19.2172 4.21427 29.3913 0 40 0ZM36.25 18.75V40C36.25 41.25 36.875 42.4219 37.9219 43.125L52.9219 53.125C54.6406 54.2812 56.9688 53.8125 58.125 52.0781C59.2812 50.3437 58.8125 48.0312 57.0781 46.875L43.75 38V18.75C43.75 16.6719 42.0781 15 40 15C37.9219 15 36.25 16.6719 36.25 18.75Z" fill="#998650"/>
</g>
<defs>
<clipPath id="clip0_13_418">
<rect width="80" height="80" fill="white"/>
</clipPath>
</defs>
</svg>
