<svg width="243" height="242" viewBox="0 0 243 242" fill="none" xmlns="http://www.w3.org/2000/svg">
<path d="M97.6485 230.158L105.168 231.192L107.815 211.933L109.895 212.219L107.248 231.478L114.768 232.511L114.514 234.354L97.3952 232.001L97.6485 230.158Z" fill="#998650"/>
<path d="M91.7593 208.224L83.2733 227.761L75.0184 224.175C74.1746 223.808 73.4798 223.299 72.9342 222.648C72.3885 221.997 71.9903 221.257 71.7396 220.428C71.4626 219.61 71.3459 218.775 71.3894 217.921C71.4067 217.078 71.5786 216.281 71.9053 215.529C72.3117 214.593 72.8776 213.792 73.603 213.126C74.3101 212.452 75.1174 211.974 76.0248 211.692C76.9138 211.403 77.8385 211.357 78.7987 211.556L77.2857 201.937L79.4595 202.881L80.9233 212.087L86.7017 214.597L89.8331 207.387L91.7593 208.224ZM85.9607 216.303L79.5769 213.53C78.8064 213.195 78.0452 213.115 77.2933 213.29C76.5414 213.465 75.8621 213.824 75.2554 214.367C74.6408 214.929 74.1661 215.595 73.8315 216.365C73.4888 217.154 73.3575 217.959 73.4376 218.778C73.4913 219.608 73.7332 220.357 74.1633 221.023C74.567 221.7 75.1358 222.198 75.8695 222.517L82.0882 225.218L85.9607 216.303Z" fill="#998650"/>
<path d="M55.7852 213.293L57.6185 200.011L44.9408 204.471L43.1721 203.032L58.0157 197.859L63.0139 191.716L64.6429 193.041L59.6068 199.231L57.5771 214.751L55.7852 213.293Z" fill="#998650"/>
<path d="M35.5365 152.799L15.4663 159.932L14.763 157.953L34.8332 150.82L35.5365 152.799Z" fill="#998650"/>
<path d="M10.069 119.491L10.587 127.064L29.9817 125.737L30.125 127.832L10.7303 129.159L11.2483 136.731L9.39259 136.858L8.21336 119.618L10.069 119.491Z" fill="#998650"/>
<path d="M46.6632 38.2603L41.4826 43.8073L55.69 57.0762L54.2567 58.6109L40.0492 45.3421L34.8686 50.8891L33.5093 49.6196L45.3038 36.9907L46.6632 38.2603Z" fill="#998650"/>
<path d="M67.9791 46.098L56.912 27.8988L64.6017 23.2226C65.3878 22.7446 66.2042 22.4704 67.051 22.4002C67.8978 22.33 68.7319 22.4314 69.5533 22.7044C70.3814 22.9498 71.1315 23.3364 71.8035 23.8641C72.4822 24.3642 73.0345 24.9646 73.4606 25.6653C73.9906 26.5368 74.3185 27.4609 74.4443 28.4377C74.5873 29.4042 74.5122 30.3393 74.2192 31.2431C73.9432 32.1366 73.4471 32.9181 72.7308 33.5878L81.4618 37.8989L79.4369 39.1303L71.0723 35.0177L65.6894 38.2911L69.7734 45.0068L67.9791 46.098ZM64.723 36.7019L70.6698 33.0856C71.3875 32.6491 71.8917 32.0733 72.1824 31.3581C72.4732 30.643 72.5715 29.8809 72.4776 29.072C72.3732 28.246 72.1028 27.4741 71.6663 26.7564C71.2195 26.0216 70.6381 25.4505 69.9222 25.0432C69.2131 24.6083 68.4622 24.3744 67.6697 24.3414C66.8838 24.2809 66.1492 24.4585 65.4656 24.8741L59.6727 28.3969L64.723 36.7019Z" fill="#998650"/>
<path d="M84.583 13.7848L94.3767 22.9421L98.0445 10.0131L100.24 9.39795L95.9058 24.5076L98.0426 32.1339L96.0205 32.7005L93.8675 25.0164L82.3586 14.4081L84.583 13.7848Z" fill="#998650"/>
<path d="M145.682 32.1282L151.429 11.6181L153.451 12.1847L147.704 32.6948L145.682 32.1282Z" fill="#998650"/>
<path d="M187.58 30.5298L181.095 26.5862L170.994 43.1961L169.2 42.1049L179.301 25.495L172.816 21.5514L173.782 19.9622L188.546 28.9406L187.58 30.5298Z" fill="#998650"/>
<path d="M232.84 107.27L231.296 99.8392L212.263 103.794L211.835 101.738L230.869 97.7831L229.325 90.3519L231.146 89.9734L234.661 106.892L232.84 107.27Z" fill="#998650"/>
<path d="M214.145 120.165L235.395 121.619L234.781 130.598C234.718 131.516 234.471 132.341 234.04 133.073C233.609 133.805 233.045 134.428 232.349 134.942C231.671 135.477 230.922 135.867 230.104 136.111C229.304 136.377 228.495 136.482 227.677 136.426C226.659 136.357 225.715 136.092 224.844 135.631C223.972 135.191 223.252 134.59 222.682 133.83C222.111 133.089 221.759 132.233 221.625 131.261L213.068 135.908L213.23 133.544L221.413 129.082L221.843 122.797L214.001 122.26L214.145 120.165ZM223.699 122.924L223.224 129.867C223.166 130.705 223.346 131.449 223.763 132.099C224.179 132.749 224.745 133.269 225.46 133.659C226.195 134.05 226.982 134.274 227.82 134.331C228.678 134.39 229.48 134.244 230.225 133.895C230.989 133.566 231.614 133.087 232.098 132.459C232.6 131.852 232.879 131.149 232.933 130.351L233.396 123.587L223.699 122.924Z" fill="#998650"/>
<path d="M230.968 152.364L217.839 155.085L226.287 165.537L225.523 167.686L215.679 155.431L208.216 152.779L208.919 150.8L216.438 153.473L231.742 150.188L230.968 152.364Z" fill="#998650"/>
<path d="M180.748 191.702L194.19 208.225L192.561 209.55L179.119 193.028L180.748 191.702Z" fill="#998650"/>
<path d="M157.892 226.853L164.854 223.829L157.109 205.999L159.035 205.162L166.78 222.993L173.741 219.969L174.482 221.675L158.633 228.559L157.892 226.853Z" fill="#998650"/>
</svg>
