<svg width="80" height="80" viewBox="0 0 80 80" fill="none" xmlns="http://www.w3.org/2000/svg">
<path d="M40.425 13.3125L28.325 25.5625C26.3125 27.5938 25.925 31.25 27.45 33.8594C29.0625 36.6406 32.2 37.1875 34.3625 35.0781L46.775 23.0156C47.65 22.1719 48.9 22.3594 49.5875 23.4531C50.275 24.5469 50.1125 26.1094 49.2375 26.9688L46.625 29.5L68.775 55H74C77.3125 55 80 51.6406 80 47.5V27.5C80 23.3594 77.3125 20 74 20H64.5H64H63.9125L63.425 19.6094L54.35 12.3438C52.4375 10.8125 50.2 10 47.925 10C45.2 10 42.55 11.1719 40.425 13.3125ZM43.275 32.75L36.8125 39.0312C32.875 42.875 27.1625 41.875 24.2125 36.8125C21.4375 32.0469 22.1375 25.3906 25.8 21.6875L36.2 11.1719C34.75 10.4062 33.1875 10.0156 31.6 10.0156C29.25 10 26.9625 10.875 25 12.5L16 20H6C2.6875 20 0 23.3594 0 27.5V47.5C0 51.6406 2.6875 55 6 55H19.525L30.95 68.0312C33.4 70.8281 37.1875 70.6094 39.425 67.5469C40.1125 66.5938 40.575 65.4844 40.8125 64.3281L42.9375 66.7656C45.375 69.5625 49.175 69.3594 51.4125 66.3125C51.975 65.5469 52.3875 64.6562 52.65 63.7344C55.075 65.7656 58.375 65.3438 60.4125 62.5625C62.65 59.5156 62.4875 54.7656 60.05 51.9688L43.275 32.75Z" fill="#998650"/>
</svg>
