<svg width="41" height="29" viewBox="0 0 41 29" fill="none" xmlns="http://www.w3.org/2000/svg">
<path d="M24.24 0.68V7.72H16.72V29H7.84V7.72H0.4V0.68H24.24ZM30.8884 29L25.5684 18.84H25.5284V29H16.6484V0.68H29.8484C32.1418 0.68 34.1018 1.09333 35.7284 1.92C37.3551 2.72 38.5684 3.82667 39.3684 5.24C40.1951 6.62666 40.6084 8.2 40.6084 9.96C40.6084 11.8533 40.0751 13.5333 39.0084 15C37.9684 16.4667 36.4618 17.52 34.4884 18.16L40.6484 29H30.8884ZM25.5284 12.92H29.0484C29.9018 12.92 30.5418 12.7333 30.9684 12.36C31.3951 11.96 31.6084 11.3467 31.6084 10.52C31.6084 9.77333 31.3818 9.18667 30.9284 8.76C30.5018 8.33333 29.8751 8.12 29.0484 8.12H25.5284V12.92Z" fill="black"/>
</svg>
